Coordinates
version=1
nRows=9
nColumns=36
inDegrees=yes

Units are S.I. units (second, meters, Newtons, ...)
If the header above contains a line with 'inDegrees', this indicates whether rotational values are in degrees (yes) or radians (no).

endheader
time	pelvis_tilt	pelvis_list	pelvis_rotation	pelvis_tx	pelvis_ty	pelvis_tz	hip_flexion_r	hip_adduction_r	hip_rotation_r	knee_angle_r	knee_angle_r_beta	ankle_angle_r	subtalar_angle_r	mtp_angle_r	hip_flexion_l	hip_adduction_l	hip_rotation_l	knee_angle_l	knee_angle_l_beta	ankle_angle_l	subtalar_angle_l	mtp_angle_l	lumbar_extension	lumbar_bending	lumbar_rotation	arm_flex_r	arm_add_r	arm_rot_r	elbow_flex_r	pro_sup_r	arm_flex_l	arm_add_l	arm_rot_l	elbow_flex_l	pro_sup_l
      2.50000000	     -7.89134004	     19.02846092	     11.94796071	      0.68981041	      0.73415002	      0.02155903	     75.58796664	    -27.76704646	      9.86615608	     37.81823867	      0.66005278	     -4.50071103	      7.54455147	     -7.49999987	     57.44163723	     29.20799057	    -11.03642619	     76.09326444	      1.32807800	     25.82359412	    -18.07774109	     -7.49999987	    -46.62289796	    -11.28093384	    -19.07975738	     50.81310468	      2.27759602	     61.12748301	    119.62349738	     91.38185399	     71.89794927	    -11.86978386	     68.44296847	    125.50422184	     88.36905970
      2.51666670	     -7.75812885	     18.88652484	     11.71935887	      0.68928538	      0.73479012	      0.02171641	     75.20613977	    -27.74457312	      9.42430603	     37.67151396	      0.65749195	     -4.36637496	      7.84288211	     -7.49999987	     57.11174818	     29.15045700	    -10.77250601	     75.71416716	      1.32146151	     25.73461317	    -18.20517893	     -7.49999987	    -46.40605005	    -11.39019143	    -19.06756698	     50.71566474	      2.72406306	     60.05844347	    120.29018976	     97.00738786	     71.95347956	    -11.66369297	     68.41727932	    126.10141285	     93.57573117
      2.53333330	     -7.41128140	     18.88036497	     11.47779805	      0.68917083	      0.73540673	      0.02138774	     74.88244842	    -27.73939661	      9.35470596	     37.76693033	      0.65915728	     -4.20755163	      7.96819829	     -7.49999987	     56.68499466	     29.09915215	    -10.71550560	     75.48625222	      1.31748364	     25.52548923	    -18.36184786	     -7.49999987	    -46.41331370	    -11.57417927	    -19.28650390	     50.20738239	      2.45954691	     60.57805572	    121.07219946	     88.10819379	     71.92752952	    -11.73918880	     68.66269427	    125.99222558	     85.37576282
      2.55000000	     -7.29879929	     18.83538534	     11.27311138	      0.68801871	      0.73827015	      0.02118230	     74.90736542	    -27.63996729	      9.41289722	     37.96153904	      0.66255385	     -4.06020855	      7.81136912	     -7.49999987	     56.64683590	     28.98842852	    -10.73056411	     75.38679655	      1.31574781	     25.33530985	    -18.43946239	     -7.49999987	    -46.14321392	    -11.70806074	    -19.50042218	     49.11214771	      2.62504881	     59.82758728	    121.85488672	     96.73663439	     71.60123952	    -11.86115082	     67.86008687	    125.96786752	     93.86287877
      2.56666670	     -7.08836592	     18.71784006	     11.04084220	      0.68273937	      0.74017935	      0.02278925	     74.79101159	    -27.42476453	      9.50934537	     38.29977335	      0.66845715	     -3.94113745	      7.82795421	     -7.49999987	     56.62057191	     28.84625297	    -10.64906521	     75.35665137	      1.31522168	     25.12695929	    -18.48238276	     -7.49999987	    -46.03296383	    -11.64657562	    -19.44722400	     48.71617382	      2.61091374	     59.59890513	    121.66060666	     96.70213423	     71.88498360	    -12.21420194	     67.81965347	    125.82766020	     93.84404149
      2.58333330	     -6.93289878	     18.59410799	     10.83179410	      0.68728864	      0.74359931	      0.02084827	     74.64320213	    -27.23004986	      9.51279681	     38.42123834	      0.67057711	     -3.97550203	      7.90753363	     -7.49999987	     56.43067563	     28.82981452	    -10.36295540	     75.08551754	      1.31048950	     25.06972405	    -18.45490415	     -7.49999987	    -45.85168844	    -11.78023323	    -19.42922984	     48.38194544	      2.62443680	     59.59540348	    121.61464130	     96.69462317	     71.82820977	    -12.27631291	     67.88047347	    125.85465973	     93.84015036
      2.60000000	     -6.45073428	     18.53981934	     10.48487877	      0.68264395	      0.74848539	      0.02299009	     73.96272399	    -27.07914425	      9.24538594	     38.26297058	      0.66781482	     -3.80937407	      8.41849402	     -7.49999987	     55.74902001	     28.76101190	    -10.13219809	     74.67641889	      1.30334938	     24.57843132	    -18.81394354	     -7.49999987	    -46.03629990	    -11.78962351	    -19.18950910	     47.20242682	      3.00386357	     58.42312296	    120.58809619	     96.55658963	     71.79566711	    -12.64999991	     68.12360587	    125.58452554	     93.74371285
      2.61666670	     -6.17970722	     18.51618157	     10.39984628	      0.67725925	      0.75488540	      0.01989615	     73.51929522	    -27.13427040	      8.92695142	     38.06601929	      0.66437737	     -3.88677963	      8.67300123	     -7.49999987	     55.27420601	     28.79649447	     -9.94880248	     74.14941167	      1.29415137	     23.94994256	    -19.13687060	     -7.49999987	    -46.33465042	    -11.64351769	    -19.16450513	     47.53152825	      2.85317297	     57.84264725	    120.22828147	     96.40828091	     72.19117032	    -12.75268770	     68.42492584	    125.20548369	     93.54303677
      2.63333330	     -5.98897114	     18.56638391	     10.05951249	      0.68783651	      0.76196779	      0.02060602	     72.85854946	    -27.06297677	      8.57961769	     37.52674225	      0.65496521	     -3.76758387	      8.96287084	     -7.49999987	     54.52125641	     28.90411619	     -9.60912078	     73.32628245	      1.27978506	     23.87270961	    -18.94763716	     -7.49999987	    -46.21718286	    -11.92932047	    -18.78222785	     46.14456843	      3.07779587	     58.98721757	    120.64137202	     96.46874178	     71.34268238	    -12.60427690	     68.73985193	    125.53517926	     93.53204828
